<mxfile host="app.diagrams.net" modified="2022-04-15T12:58:17.108Z" agent="5.0 (Windows NT 10.0; Win64; x64) AppleWebKit/537.36 (KHTML, like Gecko) Chrome/100.0.4896.88 Safari/537.36" etag="gjlojN9BCsCHjFiX4rF_" version="15.4.1" type="github">
  <diagram id="bTwpafyBJW6WgciV2X2A" name="Page-1">
    <mxGraphModel dx="1026" dy="436" grid="1" gridSize="10" guides="1" tooltips="1" connect="1" arrows="1" fold="1" page="1" pageScale="1" pageWidth="827" pageHeight="1169" math="0" shadow="0">
      <root>
        <mxCell id="0" />
        <mxCell id="1" parent="0" />
        <mxCell id="xdLl262BKOPs7i3tqqGX-3" value="" style="aspect=fixed;perimeter=ellipsePerimeter;html=1;align=center;shadow=0;dashed=0;spacingTop=3;image;image=img/lib/active_directory/home.svg;" vertex="1" parent="1">
          <mxGeometry x="163" y="358.3" width="110" height="106.7" as="geometry" />
        </mxCell>
        <mxCell id="xdLl262BKOPs7i3tqqGX-12" value="" style="html=1;shadow=0;dashed=0;align=center;verticalAlign=middle;shape=mxgraph.arrows2.arrow;dy=0.67;dx=20;notch=0;" vertex="1" parent="1">
          <mxGeometry x="273" y="401" width="50" height="30" as="geometry" />
        </mxCell>
        <mxCell id="xdLl262BKOPs7i3tqqGX-13" value="Intrusion System can be activated manually with a switch or automaticaly when no one is home." style="text;html=1;strokeColor=none;fillColor=none;align=center;verticalAlign=middle;whiteSpace=wrap;rounded=0;" vertex="1" parent="1">
          <mxGeometry x="133" y="465" width="160" height="76.7" as="geometry" />
        </mxCell>
        <mxCell id="xdLl262BKOPs7i3tqqGX-14" value="" style="shape=image;html=1;verticalAlign=top;verticalLabelPosition=bottom;labelBackgroundColor=#ffffff;imageAspect=0;aspect=fixed;image=https://cdn2.iconfinder.com/data/icons/household-things/64/house_window-128.png" vertex="1" parent="1">
          <mxGeometry x="337" y="379" width="74" height="74" as="geometry" />
        </mxCell>
        <mxCell id="xdLl262BKOPs7i3tqqGX-15" value="Window is opened" style="text;html=1;strokeColor=none;fillColor=none;align=center;verticalAlign=middle;whiteSpace=wrap;rounded=0;" vertex="1" parent="1">
          <mxGeometry x="298.5" y="453" width="143" height="36.7" as="geometry" />
        </mxCell>
        <mxCell id="xdLl262BKOPs7i3tqqGX-16" value="" style="html=1;shadow=0;dashed=0;align=center;verticalAlign=middle;shape=mxgraph.arrows2.arrow;dy=0.67;dx=20;notch=0;" vertex="1" parent="1">
          <mxGeometry x="424" y="401" width="50" height="30" as="geometry" />
        </mxCell>
        <mxCell id="xdLl262BKOPs7i3tqqGX-17" value="" style="aspect=fixed;perimeter=ellipsePerimeter;html=1;align=center;shadow=0;dashed=0;fontColor=#4277BB;labelBackgroundColor=#ffffff;fontSize=12;spacingTop=3;image;image=img/lib/ibm/users/sensor.svg;" vertex="1" parent="1">
          <mxGeometry x="485" y="386" width="60" height="60" as="geometry" />
        </mxCell>
        <mxCell id="xdLl262BKOPs7i3tqqGX-18" value="Wireless sensor motion&lt;br&gt;is activated" style="text;html=1;strokeColor=none;fillColor=none;align=center;verticalAlign=middle;whiteSpace=wrap;rounded=0;" vertex="1" parent="1">
          <mxGeometry x="437.5" y="461.7" width="143" height="36.7" as="geometry" />
        </mxCell>
        <mxCell id="xdLl262BKOPs7i3tqqGX-19" value="" style="html=1;shadow=0;dashed=0;align=center;verticalAlign=middle;shape=mxgraph.arrows2.arrow;dy=0.67;dx=20;notch=0;" vertex="1" parent="1">
          <mxGeometry x="568" y="402" width="50" height="30" as="geometry" />
        </mxCell>
        <mxCell id="xdLl262BKOPs7i3tqqGX-21" value="" style="sketch=0;outlineConnect=0;fontColor=#232F3E;gradientColor=none;fillColor=#232F3E;strokeColor=none;dashed=0;verticalLabelPosition=bottom;verticalAlign=top;align=center;html=1;fontSize=12;fontStyle=0;aspect=fixed;pointerEvents=1;shape=mxgraph.aws4.mobile_client;" vertex="1" parent="1">
          <mxGeometry x="636" y="379" width="41" height="78" as="geometry" />
        </mxCell>
        <mxCell id="xdLl262BKOPs7i3tqqGX-22" value="Recieved phone notification, asking for a password" style="text;html=1;strokeColor=none;fillColor=none;align=center;verticalAlign=middle;whiteSpace=wrap;rounded=0;" vertex="1" parent="1">
          <mxGeometry x="588" y="465" width="143" height="36.7" as="geometry" />
        </mxCell>
        <mxCell id="xdLl262BKOPs7i3tqqGX-31" value="" style="html=1;shadow=0;dashed=0;align=center;verticalAlign=middle;shape=mxgraph.arrows2.arrow;dy=0.67;dx=20;notch=0;" vertex="1" parent="1">
          <mxGeometry x="700" y="401" width="50" height="30" as="geometry" />
        </mxCell>
        <mxCell id="xdLl262BKOPs7i3tqqGX-32" value="" style="html=1;whiteSpace=wrap;shape=isoCube2;backgroundOutline=1;isoAngle=15;" vertex="1" parent="1">
          <mxGeometry x="763" y="389.15" width="50" height="55.85" as="geometry" />
        </mxCell>
        <mxCell id="xdLl262BKOPs7i3tqqGX-36" value="The cube will be used as the password provider" style="text;html=1;strokeColor=none;fillColor=none;align=center;verticalAlign=middle;whiteSpace=wrap;rounded=0;" vertex="1" parent="1">
          <mxGeometry x="740" y="451.85" width="109" height="63" as="geometry" />
        </mxCell>
        <mxCell id="xdLl262BKOPs7i3tqqGX-38" value="" style="sketch=0;outlineConnect=0;fontColor=#232F3E;gradientColor=none;fillColor=#232F3E;strokeColor=none;dashed=0;verticalLabelPosition=bottom;verticalAlign=top;align=center;html=1;fontSize=12;fontStyle=0;aspect=fixed;pointerEvents=1;shape=mxgraph.aws4.mobile_client;" vertex="1" parent="1">
          <mxGeometry x="913" y="448.4" width="41" height="78" as="geometry" />
        </mxCell>
        <mxCell id="xdLl262BKOPs7i3tqqGX-39" value="Recieved phone notification, with warning" style="text;html=1;strokeColor=none;fillColor=none;align=center;verticalAlign=middle;whiteSpace=wrap;rounded=0;" vertex="1" parent="1">
          <mxGeometry x="865" y="528.7" width="143" height="36.7" as="geometry" />
        </mxCell>
        <mxCell id="xdLl262BKOPs7i3tqqGX-40" value="" style="shape=image;html=1;verticalAlign=top;verticalLabelPosition=bottom;labelBackgroundColor=#ffffff;imageAspect=0;aspect=fixed;image=https://cdn3.iconfinder.com/data/icons/arrow-outline-8/32/arrow_2-128.png;direction=west;" vertex="1" parent="1">
          <mxGeometry x="835.65" y="428.4" width="70" height="70" as="geometry" />
        </mxCell>
        <mxCell id="xdLl262BKOPs7i3tqqGX-41" value="" style="shape=image;html=1;verticalAlign=top;verticalLabelPosition=bottom;labelBackgroundColor=#ffffff;imageAspect=0;aspect=fixed;image=https://cdn3.iconfinder.com/data/icons/arrow-outline-8/32/arrow-128.png" vertex="1" parent="1">
          <mxGeometry x="831.5" y="335" width="74.15" height="74.15" as="geometry" />
        </mxCell>
        <mxCell id="xdLl262BKOPs7i3tqqGX-42" value="SUCCESS" style="text;html=1;strokeColor=none;fillColor=none;align=center;verticalAlign=middle;whiteSpace=wrap;rounded=0;rotation=-45;" vertex="1" parent="1">
          <mxGeometry x="813" y="359.15" width="60" height="30" as="geometry" />
        </mxCell>
        <mxCell id="xdLl262BKOPs7i3tqqGX-44" value="" style="shape=image;html=1;verticalAlign=top;verticalLabelPosition=bottom;labelBackgroundColor=#ffffff;imageAspect=0;aspect=fixed;image=https://cdn0.iconfinder.com/data/icons/phosphor-duotone-vol-1/256/bell-slash-duotone-128.png" vertex="1" parent="1">
          <mxGeometry x="890" y="295" width="50" height="50" as="geometry" />
        </mxCell>
        <mxCell id="xdLl262BKOPs7i3tqqGX-45" value="Desactivate Alarm" style="text;html=1;strokeColor=none;fillColor=none;align=center;verticalAlign=middle;whiteSpace=wrap;rounded=0;" vertex="1" parent="1">
          <mxGeometry x="880" y="255" width="60" height="30" as="geometry" />
        </mxCell>
        <mxCell id="xdLl262BKOPs7i3tqqGX-46" value="" style="html=1;shadow=0;dashed=0;align=center;verticalAlign=middle;shape=mxgraph.arrows2.arrow;dy=0.67;dx=20;notch=0;" vertex="1" parent="1">
          <mxGeometry x="950" y="335" width="50" height="30" as="geometry" />
        </mxCell>
        <mxCell id="xdLl262BKOPs7i3tqqGX-47" value="Recieved phone notification with welcome message" style="text;html=1;strokeColor=none;fillColor=none;align=center;verticalAlign=middle;whiteSpace=wrap;rounded=0;" vertex="1" parent="1">
          <mxGeometry x="969" y="379" width="143" height="36.7" as="geometry" />
        </mxCell>
        <mxCell id="xdLl262BKOPs7i3tqqGX-49" value="Failure" style="text;html=1;strokeColor=none;fillColor=none;align=center;verticalAlign=middle;whiteSpace=wrap;rounded=0;rotation=45;" vertex="1" parent="1">
          <mxGeometry x="835.6500000000001" y="425.15000000000003" width="75.65" height="31.85" as="geometry" />
        </mxCell>
        <mxCell id="xdLl262BKOPs7i3tqqGX-51" value="" style="shape=image;html=1;verticalAlign=top;verticalLabelPosition=bottom;labelBackgroundColor=#ffffff;imageAspect=0;aspect=fixed;image=https://cdn4.iconfinder.com/data/icons/meBaze-Freebies/128/faq.png" vertex="1" parent="1">
          <mxGeometry x="162" y="580" width="58" height="58" as="geometry" />
        </mxCell>
        <mxCell id="xdLl262BKOPs7i3tqqGX-53" value="" style="html=1;shadow=0;dashed=0;align=center;verticalAlign=middle;shape=mxgraph.arrows2.arrow;dy=0.67;dx=20;notch=0;" vertex="1" parent="1">
          <mxGeometry x="232" y="596.5" width="47" height="25" as="geometry" />
        </mxCell>
        <mxCell id="xdLl262BKOPs7i3tqqGX-54" value="How to guess wether&amp;nbsp; the house is empty or not ?" style="text;html=1;strokeColor=none;fillColor=none;align=center;verticalAlign=middle;whiteSpace=wrap;rounded=0;" vertex="1" parent="1">
          <mxGeometry x="103" y="638" width="170" height="60" as="geometry" />
        </mxCell>
        <mxCell id="xdLl262BKOPs7i3tqqGX-55" value="" style="aspect=fixed;perimeter=ellipsePerimeter;html=1;align=center;shadow=0;dashed=0;fontColor=#4277BB;labelBackgroundColor=#ffffff;fontSize=12;spacingTop=3;image;image=img/lib/ibm/users/sensor.svg;" vertex="1" parent="1">
          <mxGeometry x="288" y="594" width="30" height="30" as="geometry" />
        </mxCell>
        <mxCell id="xdLl262BKOPs7i3tqqGX-56" value="" style="aspect=fixed;perimeter=ellipsePerimeter;html=1;align=center;shadow=0;dashed=0;fontColor=#4277BB;labelBackgroundColor=#ffffff;fontSize=12;spacingTop=3;image;image=img/lib/ibm/users/sensor.svg;" vertex="1" parent="1">
          <mxGeometry x="426" y="594" width="30" height="30" as="geometry" />
        </mxCell>
        <mxCell id="xdLl262BKOPs7i3tqqGX-59" value="" style="html=1;verticalLabelPosition=bottom;labelBackgroundColor=#ffffff;verticalAlign=top;shadow=0;dashed=0;strokeWidth=2;shape=mxgraph.ios7.misc.right;strokeColor=#0080f0;" vertex="1" parent="1">
          <mxGeometry x="337" y="603" width="6" height="12" as="geometry" />
        </mxCell>
        <mxCell id="xdLl262BKOPs7i3tqqGX-60" value="" style="html=1;verticalLabelPosition=bottom;labelBackgroundColor=#ffffff;verticalAlign=top;shadow=0;dashed=0;strokeWidth=2;shape=mxgraph.ios7.misc.right;strokeColor=#0080f0;" vertex="1" parent="1">
          <mxGeometry x="343" y="603" width="6" height="12" as="geometry" />
        </mxCell>
        <mxCell id="xdLl262BKOPs7i3tqqGX-61" value="" style="html=1;verticalLabelPosition=bottom;labelBackgroundColor=#ffffff;verticalAlign=top;shadow=0;dashed=0;strokeWidth=2;shape=mxgraph.ios7.misc.right;strokeColor=#0080f0;" vertex="1" parent="1">
          <mxGeometry x="349" y="603" width="6" height="12" as="geometry" />
        </mxCell>
        <mxCell id="xdLl262BKOPs7i3tqqGX-63" value="" style="html=1;verticalLabelPosition=bottom;labelBackgroundColor=#ffffff;verticalAlign=top;shadow=0;dashed=0;strokeWidth=2;shape=mxgraph.ios7.misc.right;strokeColor=#0080f0;" vertex="1" parent="1">
          <mxGeometry x="355" y="603" width="6" height="12" as="geometry" />
        </mxCell>
        <mxCell id="xdLl262BKOPs7i3tqqGX-64" value="exit direction" style="text;html=1;strokeColor=none;fillColor=none;align=center;verticalAlign=middle;whiteSpace=wrap;rounded=0;" vertex="1" parent="1">
          <mxGeometry x="331" y="578" width="80" height="30" as="geometry" />
        </mxCell>
        <mxCell id="xdLl262BKOPs7i3tqqGX-66" value="" style="html=1;verticalLabelPosition=bottom;labelBackgroundColor=#ffffff;verticalAlign=top;shadow=0;dashed=0;strokeWidth=2;shape=mxgraph.ios7.misc.right;strokeColor=#0080f0;" vertex="1" parent="1">
          <mxGeometry x="363" y="603" width="6" height="12" as="geometry" />
        </mxCell>
        <mxCell id="xdLl262BKOPs7i3tqqGX-67" value="" style="html=1;verticalLabelPosition=bottom;labelBackgroundColor=#ffffff;verticalAlign=top;shadow=0;dashed=0;strokeWidth=2;shape=mxgraph.ios7.misc.right;strokeColor=#0080f0;" vertex="1" parent="1">
          <mxGeometry x="369" y="603" width="6" height="12" as="geometry" />
        </mxCell>
        <mxCell id="xdLl262BKOPs7i3tqqGX-68" value="" style="html=1;verticalLabelPosition=bottom;labelBackgroundColor=#ffffff;verticalAlign=top;shadow=0;dashed=0;strokeWidth=2;shape=mxgraph.ios7.misc.right;strokeColor=#0080f0;" vertex="1" parent="1">
          <mxGeometry x="375" y="603" width="6" height="12" as="geometry" />
        </mxCell>
        <mxCell id="xdLl262BKOPs7i3tqqGX-69" value="" style="html=1;verticalLabelPosition=bottom;labelBackgroundColor=#ffffff;verticalAlign=top;shadow=0;dashed=0;strokeWidth=2;shape=mxgraph.ios7.misc.right;strokeColor=#0080f0;" vertex="1" parent="1">
          <mxGeometry x="381" y="603" width="6" height="12" as="geometry" />
        </mxCell>
        <mxCell id="xdLl262BKOPs7i3tqqGX-71" value="" style="html=1;verticalLabelPosition=bottom;labelBackgroundColor=#ffffff;verticalAlign=top;shadow=0;dashed=0;strokeWidth=2;shape=mxgraph.ios7.misc.right;strokeColor=#0080f0;" vertex="1" parent="1">
          <mxGeometry x="389" y="603" width="6" height="12" as="geometry" />
        </mxCell>
        <mxCell id="xdLl262BKOPs7i3tqqGX-72" value="" style="html=1;verticalLabelPosition=bottom;labelBackgroundColor=#ffffff;verticalAlign=top;shadow=0;dashed=0;strokeWidth=2;shape=mxgraph.ios7.misc.right;strokeColor=#0080f0;" vertex="1" parent="1">
          <mxGeometry x="395" y="603" width="6" height="12" as="geometry" />
        </mxCell>
        <mxCell id="xdLl262BKOPs7i3tqqGX-73" value="" style="html=1;verticalLabelPosition=bottom;labelBackgroundColor=#ffffff;verticalAlign=top;shadow=0;dashed=0;strokeWidth=2;shape=mxgraph.ios7.misc.right;strokeColor=#0080f0;" vertex="1" parent="1">
          <mxGeometry x="401" y="603" width="6" height="12" as="geometry" />
        </mxCell>
        <mxCell id="xdLl262BKOPs7i3tqqGX-74" value="" style="html=1;verticalLabelPosition=bottom;labelBackgroundColor=#ffffff;verticalAlign=top;shadow=0;dashed=0;strokeWidth=2;shape=mxgraph.ios7.misc.right;strokeColor=#0080f0;" vertex="1" parent="1">
          <mxGeometry x="407" y="603" width="6" height="12" as="geometry" />
        </mxCell>
        <mxCell id="xdLl262BKOPs7i3tqqGX-77" value="" style="html=1;shadow=0;dashed=0;align=center;verticalAlign=middle;shape=mxgraph.arrows2.arrow;dy=0.67;dx=20;notch=0;" vertex="1" parent="1">
          <mxGeometry x="460" y="596" width="47" height="25" as="geometry" />
        </mxCell>
        <mxCell id="xdLl262BKOPs7i3tqqGX-79" value="- We have a Counter initially set to&amp;nbsp; to&amp;nbsp;0 which represents the state of an empty home&lt;br&gt;- Incremented by 1 on entry&lt;br&gt;- Decremented by 1 on&lt;br&gt;&amp;nbsp;exit" style="text;html=1;strokeColor=none;fillColor=none;align=left;verticalAlign=middle;whiteSpace=wrap;rounded=0;" vertex="1" parent="1">
          <mxGeometry x="517.5" y="600.5" width="169.5" height="30" as="geometry" />
        </mxCell>
        <mxCell id="xdLl262BKOPs7i3tqqGX-80" value="" style="aspect=fixed;perimeter=ellipsePerimeter;html=1;align=center;shadow=0;dashed=0;fontColor=#4277BB;labelBackgroundColor=#ffffff;fontSize=12;spacingTop=3;image;image=img/lib/ibm/users/sensor.svg;" vertex="1" parent="1">
          <mxGeometry x="123" y="837" width="60" height="60" as="geometry" />
        </mxCell>
        <mxCell id="xdLl262BKOPs7i3tqqGX-81" value="Gas Sensor" style="text;html=1;strokeColor=none;fillColor=none;align=center;verticalAlign=middle;whiteSpace=wrap;rounded=0;" vertex="1" parent="1">
          <mxGeometry x="120" y="907" width="60" height="30" as="geometry" />
        </mxCell>
        <mxCell id="xdLl262BKOPs7i3tqqGX-82" value="" style="html=1;shadow=0;dashed=0;align=center;verticalAlign=middle;shape=mxgraph.arrows2.arrow;dy=0.67;dx=20;notch=0;" vertex="1" parent="1">
          <mxGeometry x="201" y="854.5" width="109" height="25" as="geometry" />
        </mxCell>
        <mxCell id="xdLl262BKOPs7i3tqqGX-83" value="Gas leakage" style="text;html=1;strokeColor=none;fillColor=none;align=center;verticalAlign=middle;whiteSpace=wrap;rounded=0;" vertex="1" parent="1">
          <mxGeometry x="201" y="837" width="90" height="30" as="geometry" />
        </mxCell>
        <mxCell id="xdLl262BKOPs7i3tqqGX-84" value="" style="labelPosition=right;align=left;strokeWidth=1;shape=mxgraph.mockup.markup.curlyBrace;html=1;shadow=0;dashed=0;strokeColor=#999999;direction=north;" vertex="1" parent="1">
          <mxGeometry x="323" y="827" width="20" height="100" as="geometry" />
        </mxCell>
        <mxCell id="xdLl262BKOPs7i3tqqGX-85" value="" style="aspect=fixed;perimeter=ellipsePerimeter;html=1;align=center;shadow=0;dashed=0;fontColor=#4277BB;labelBackgroundColor=#ffffff;fontSize=12;spacingTop=3;image;image=img/lib/ibm/users/sensor.svg;" vertex="1" parent="1">
          <mxGeometry x="355" y="795" width="32" height="32" as="geometry" />
        </mxCell>
        <mxCell id="xdLl262BKOPs7i3tqqGX-86" value="" style="aspect=fixed;perimeter=ellipsePerimeter;html=1;align=center;shadow=0;dashed=0;fontColor=#33C6FF;labelBackgroundColor=#ffffff;fontSize=12;spacingTop=3;image;image=img/lib/ibm/users/sensor.svg;" vertex="1" parent="1">
          <mxGeometry x="358" y="905" width="32" height="32" as="geometry" />
        </mxCell>
        <mxCell id="xdLl262BKOPs7i3tqqGX-87" value="open/close&lt;br&gt;sensor for window 1" style="text;html=1;strokeColor=none;fillColor=none;align=center;verticalAlign=middle;whiteSpace=wrap;rounded=0;" vertex="1" parent="1">
          <mxGeometry x="336.5" y="757" width="68.5" height="30" as="geometry" />
        </mxCell>
        <mxCell id="xdLl262BKOPs7i3tqqGX-89" value="" style="html=1;shadow=0;dashed=0;align=center;verticalAlign=middle;shape=mxgraph.arrows2.arrow;dy=0.67;dx=20;notch=0;" vertex="1" parent="1">
          <mxGeometry x="416" y="798.5" width="47" height="25" as="geometry" />
        </mxCell>
        <mxCell id="xdLl262BKOPs7i3tqqGX-91" value="If window 1 is closed" style="text;html=1;strokeColor=none;fillColor=none;align=center;verticalAlign=middle;whiteSpace=wrap;rounded=0;" vertex="1" parent="1">
          <mxGeometry x="468" y="793.5" width="60" height="30" as="geometry" />
        </mxCell>
        <mxCell id="xdLl262BKOPs7i3tqqGX-92" value="open/close&lt;br&gt;sensor for window 2" style="text;html=1;strokeColor=none;fillColor=none;align=center;verticalAlign=middle;whiteSpace=wrap;rounded=0;" vertex="1" parent="1">
          <mxGeometry x="341" y="947" width="68.5" height="30" as="geometry" />
        </mxCell>
        <mxCell id="xdLl262BKOPs7i3tqqGX-93" value="" style="html=1;shadow=0;dashed=0;align=center;verticalAlign=middle;shape=mxgraph.arrows2.arrow;dy=0.67;dx=20;notch=0;" vertex="1" parent="1">
          <mxGeometry x="548" y="802" width="47" height="25" as="geometry" />
        </mxCell>
        <mxCell id="xdLl262BKOPs7i3tqqGX-94" value="" style="image;html=1;image=img/lib/clip_art/general/Plug_128x128.png;align=left;" vertex="1" parent="1">
          <mxGeometry x="637" y="774.5" width="80" height="80" as="geometry" />
        </mxCell>
        <mxCell id="xdLl262BKOPs7i3tqqGX-95" value="Activate plug to open the window" style="text;html=1;strokeColor=none;fillColor=none;align=center;verticalAlign=middle;whiteSpace=wrap;rounded=0;" vertex="1" parent="1">
          <mxGeometry x="595" y="802" width="60" height="30" as="geometry" />
        </mxCell>
        <mxCell id="xdLl262BKOPs7i3tqqGX-97" value="" style="html=1;shadow=0;dashed=0;align=center;verticalAlign=middle;shape=mxgraph.arrows2.arrow;dy=0.67;dx=20;notch=0;" vertex="1" parent="1">
          <mxGeometry x="419" y="910.5" width="47" height="25" as="geometry" />
        </mxCell>
        <mxCell id="xdLl262BKOPs7i3tqqGX-98" value="If window 2 is closed" style="text;html=1;strokeColor=none;fillColor=none;align=center;verticalAlign=middle;whiteSpace=wrap;rounded=0;" vertex="1" parent="1">
          <mxGeometry x="471" y="905.5" width="60" height="30" as="geometry" />
        </mxCell>
        <mxCell id="xdLl262BKOPs7i3tqqGX-99" value="" style="html=1;shadow=0;dashed=0;align=center;verticalAlign=middle;shape=mxgraph.arrows2.arrow;dy=0.67;dx=20;notch=0;" vertex="1" parent="1">
          <mxGeometry x="551" y="914" width="47" height="25" as="geometry" />
        </mxCell>
        <mxCell id="xdLl262BKOPs7i3tqqGX-100" value="" style="image;html=1;image=img/lib/clip_art/general/Plug_128x128.png;align=left;" vertex="1" parent="1">
          <mxGeometry x="640" y="886.5" width="80" height="80" as="geometry" />
        </mxCell>
        <mxCell id="xdLl262BKOPs7i3tqqGX-101" value="Activate plug to open the window" style="text;html=1;strokeColor=none;fillColor=none;align=center;verticalAlign=middle;whiteSpace=wrap;rounded=0;" vertex="1" parent="1">
          <mxGeometry x="598" y="914" width="60" height="30" as="geometry" />
        </mxCell>
        <mxCell id="xdLl262BKOPs7i3tqqGX-102" value="" style="html=1;shadow=0;dashed=0;align=center;verticalAlign=middle;shape=mxgraph.arrows2.arrow;dy=0.67;dx=20;notch=0;" vertex="1" parent="1">
          <mxGeometry x="715" y="854.5" width="47" height="25" as="geometry" />
        </mxCell>
        <mxCell id="xdLl262BKOPs7i3tqqGX-105" value="" style="sketch=0;outlineConnect=0;fontColor=#232F3E;gradientColor=none;fillColor=#232F3E;strokeColor=none;dashed=0;verticalLabelPosition=bottom;verticalAlign=top;align=center;html=1;fontSize=12;fontStyle=0;aspect=fixed;pointerEvents=1;shape=mxgraph.aws4.mobile_client;" vertex="1" parent="1">
          <mxGeometry x="784" y="828" width="41" height="78" as="geometry" />
        </mxCell>
        <mxCell id="xdLl262BKOPs7i3tqqGX-106" value="Notify all users, about the gas leakage, the state of the windows&lt;br&gt;and the number of persons in the house (this will help at the rescue operation)&amp;nbsp;" style="text;html=1;strokeColor=none;fillColor=none;align=center;verticalAlign=middle;whiteSpace=wrap;rounded=0;" vertex="1" parent="1">
          <mxGeometry x="845" y="787" width="185" height="150" as="geometry" />
        </mxCell>
      </root>
    </mxGraphModel>
  </diagram>
</mxfile>
